<svg width="16" height="16" viewBox="0 0 16 16" fill="none" xmlns="http://www.w3.org/2000/svg">
<path d="M12 5.33317V3.99984C12 3.64622 11.8595 3.30708 11.6095 3.05703C11.3594 2.80698 11.0203 2.6665 10.6667 2.6665H2.66668C2.31305 2.6665 1.97392 2.80698 1.72387 3.05703C1.47382 3.30708 1.33334 3.64622 1.33334 3.99984V8.6665C1.33334 9.02013 1.47382 9.35926 1.72387 9.60931C1.97392 9.85936 2.31305 9.99984 2.66668 9.99984H8.00001M6.66668 12.6665V10.0265V12.1265M4.66668 12.6665H8.00001M12 7.99984H13.3333C14.0697 7.99984 14.6667 8.59679 14.6667 9.33317V13.3332C14.6667 14.0696 14.0697 14.6665 13.3333 14.6665H12C11.2636 14.6665 10.6667 14.0696 10.6667 13.3332V9.33317C10.6667 8.59679 11.2636 7.99984 12 7.99984Z" stroke="#5D3FD3" stroke-width="1.5" stroke-linecap="round" stroke-linejoin="round"/>
</svg>
