<svg width="80" height="90" viewBox="0 0 80 90" fill="none" xmlns="http://www.w3.org/2000/svg">
<g clip-path="url(#clip0_454_663)">
<path d="M72.772 44.8125H46.3014C45.6948 44.8125 45.1985 44.3162 45.1985 43.7096V17.239C45.1985 16.6324 45.6948 16.136 46.3014 16.136C46.908 16.136 47.4044 16.6324 47.4044 17.239V42.6066H72.772C73.3786 42.6066 73.875 43.103 73.875 43.7096C73.875 44.3162 73.3786 44.8125 72.772 44.8125Z" fill="#404040"/>
<path d="M46.3014 84.0441C45.6948 84.0441 45.1985 83.5478 45.1985 82.9412V56.4706C45.1985 55.864 45.6948 55.3677 46.3014 55.3677H72.772C73.3786 55.3677 73.875 55.864 73.875 56.4706C73.875 57.0772 73.3786 57.5736 72.772 57.5736H47.4044V82.9412C47.4044 83.5478 46.908 84.0441 46.3014 84.0441Z" fill="#404040"/>
<path d="M33.5295 44.8125H7.05887C6.45226 44.8125 5.95593 44.3162 5.95593 43.7096C5.95593 43.103 6.45226 42.6066 7.05887 42.6066H32.4265V17.239C32.4265 16.6324 32.9228 16.136 33.5295 16.136C34.1361 16.136 34.6324 16.6324 34.6324 17.239V43.7096C34.6324 44.3162 34.1361 44.8125 33.5295 44.8125Z" fill="#404040"/>
<path d="M33.5295 84.0441C32.9228 84.0441 32.4265 83.5478 32.4265 82.9412V57.5736H7.05887C6.45226 57.5736 5.95593 57.0772 5.95593 56.4706C5.95593 55.864 6.45226 55.3677 7.05887 55.3677H33.5295C34.1361 55.3677 34.6324 55.864 34.6324 56.4706V82.9412C34.6324 83.5478 34.1361 84.0441 33.5295 84.0441Z" fill="#404040"/>
<path d="M66.1986 38.1397H52.9633C52.3567 38.1397 51.8604 37.6434 51.8604 37.0368V23.8015C51.8604 23.1949 52.3567 22.6985 52.9633 22.6985C53.5699 22.6985 54.0662 23.1949 54.0662 23.8015V35.9338H66.1986C66.8052 35.9338 67.3015 36.4302 67.3015 37.0368C67.3015 37.6434 66.8052 38.1397 66.1986 38.1397Z" fill="#404040"/>
<path d="M52.9633 77.4706C52.3567 77.4706 51.8604 76.9743 51.8604 76.3677V63.1324C51.8604 62.5257 52.3567 62.0294 52.9633 62.0294H66.1986C66.8052 62.0294 67.3015 62.5257 67.3015 63.1324C67.3015 63.739 66.8052 64.2353 66.1986 64.2353H54.0662V76.3677C54.0662 76.9743 53.5699 77.4706 52.9633 77.4706Z" fill="#404040"/>
<path d="M26.8677 38.1397H13.6324C13.0257 38.1397 12.5294 37.6434 12.5294 37.0368C12.5294 36.4302 13.0257 35.9338 13.6324 35.9338H25.7647V23.8015C25.7647 23.1949 26.261 22.6985 26.8677 22.6985C27.4743 22.6985 27.9706 23.1949 27.9706 23.8015V37.0368C27.9706 37.6434 27.4743 38.1397 26.8677 38.1397Z" fill="#404040"/>
<path d="M26.8677 77.4706C26.261 77.4706 25.7647 76.9743 25.7647 76.3677V64.2353H13.6324C13.0257 64.2353 12.5294 63.739 12.5294 63.1324C12.5294 62.5257 13.0257 62.0294 13.6324 62.0294H26.8677C27.4743 62.0294 27.9706 62.5257 27.9706 63.1324V76.3677C27.9706 76.9743 27.4743 77.4706 26.8677 77.4706Z" fill="#404040"/>
<path d="M78.7279 48.9816H41.0184V15.375H49.864C50.8015 15.375 51.3309 14.3051 50.7684 13.5551L40.875 0.452184C40.4228 -0.143404 39.5184 -0.143404 39.0662 0.452184L29.1728 13.5551C28.6103 14.3051 29.1397 15.375 30.0772 15.375H38.8235V48.9926H1.10294C0.496323 48.9926 0 49.4889 0 50.0956C0 50.7022 0.496323 51.1985 1.10294 51.1985H38.8125V88.9081C38.8125 89.5147 39.3088 90.011 39.9154 90.011C40.5221 90.011 41.0184 89.5147 41.0184 88.9081V51.1985H78.7279C79.3346 51.1985 79.8309 50.7022 79.8309 50.0956C79.8309 49.4889 79.3346 48.9926 78.7279 48.9926V48.9816Z" fill="#404040"/>
</g>
<defs>
<clipPath id="clip0_454_663">
<rect width="79.8309" height="90" fill="white"/>
</clipPath>
</defs>
</svg>
