<svg width="16" height="16" viewBox="0 0 16 16" fill="none" xmlns="http://www.w3.org/2000/svg">
<path d="M7.99998 11.333V14.6663M5.99998 7.17301C5.99985 7.42106 5.93052 7.66416 5.79979 7.87498C5.66907 8.08579 5.48212 8.25596 5.25998 8.36634L4.07331 8.96634C3.85117 9.07673 3.66423 9.24689 3.5335 9.4577C3.40277 9.66852 3.33344 9.91162 3.33331 10.1597V10.6663C3.33331 10.8432 3.40355 11.0127 3.52858 11.1377C3.6536 11.2628 3.82317 11.333 3.99998 11.333H12C12.1768 11.333 12.3464 11.2628 12.4714 11.1377C12.5964 11.0127 12.6666 10.8432 12.6666 10.6663V10.1597C12.6665 9.91162 12.5972 9.66852 12.4665 9.4577C12.3357 9.24689 12.1488 9.07673 11.9266 8.96634L10.74 8.36634C10.5178 8.25596 10.3309 8.08579 10.2002 7.87498C10.0694 7.66416 10.0001 7.42106 9.99998 7.17301V4.66634C9.99998 4.48953 10.0702 4.31996 10.1952 4.19494C10.3203 4.06991 10.4898 3.99967 10.6666 3.99967C11.0203 3.99967 11.3594 3.8592 11.6095 3.60915C11.8595 3.3591 12 3.01996 12 2.66634C12 2.31272 11.8595 1.97358 11.6095 1.72353C11.3594 1.47348 11.0203 1.33301 10.6666 1.33301H5.33331C4.97969 1.33301 4.64055 1.47348 4.3905 1.72353C4.14046 1.97358 3.99998 2.31272 3.99998 2.66634C3.99998 3.01996 4.14046 3.3591 4.3905 3.60915C4.64055 3.8592 4.97969 3.99967 5.33331 3.99967C5.51012 3.99967 5.67969 4.06991 5.80472 4.19494C5.92974 4.31996 5.99998 4.48953 5.99998 4.66634V7.17301Z" stroke="#404040" stroke-width="1.5" stroke-linecap="round" stroke-linejoin="round"/>
</svg>
