<svg width="16" height="16" viewBox="0 0 16 16" fill="none" xmlns="http://www.w3.org/2000/svg">
<path d="M8 11.333V14.6663M5.99999 7.17301C5.99986 7.42106 5.93054 7.66416 5.79981 7.87498C5.66908 8.08579 5.48214 8.25596 5.25999 8.36634L4.07333 8.96634C3.85119 9.07673 3.66424 9.24689 3.53351 9.4577C3.40279 9.66852 3.33346 9.91162 3.33333 10.1597V10.6663C3.33333 10.8432 3.40357 11.0127 3.52859 11.1377C3.65361 11.2628 3.82318 11.333 3.99999 11.333H12C12.1768 11.333 12.3464 11.2628 12.4714 11.1377C12.5964 11.0127 12.6667 10.8432 12.6667 10.6663V10.1597C12.6665 9.91162 12.5972 9.66852 12.4665 9.4577C12.3357 9.24689 12.1488 9.07673 11.9267 8.96634L10.74 8.36634C10.5179 8.25596 10.3309 8.08579 10.2002 7.87498C10.0695 7.66416 10.0001 7.42106 10 7.17301V4.66634C10 4.48953 10.0702 4.31996 10.1953 4.19494C10.3203 4.06991 10.4899 3.99967 10.6667 3.99967C11.0203 3.99967 11.3594 3.8592 11.6095 3.60915C11.8595 3.3591 12 3.01996 12 2.66634C12 2.31272 11.8595 1.97358 11.6095 1.72353C11.3594 1.47348 11.0203 1.33301 10.6667 1.33301H5.33333C4.97971 1.33301 4.64057 1.47348 4.39052 1.72353C4.14047 1.97358 3.99999 2.31272 3.99999 2.66634C3.99999 3.01996 4.14047 3.3591 4.39052 3.60915C4.64057 3.8592 4.97971 3.99967 5.33333 3.99967C5.51014 3.99967 5.67971 4.06991 5.80473 4.19494C5.92976 4.31996 5.99999 4.48953 5.99999 4.66634V7.17301Z" stroke="#5D3FD3" stroke-width="1.5" stroke-linecap="round" stroke-linejoin="round"/>
</svg>
