<svg width="16" height="16" viewBox="0 0 16 16" fill="none" xmlns="http://www.w3.org/2000/svg">
<g clip-path="url(#clip0_1910_4187)">
<path d="M7.99998 11.333V14.6663M9.99998 6.22634V4.66634C9.99998 4.48953 10.0702 4.31996 10.1952 4.19494C10.3203 4.06991 10.4898 3.99967 10.6666 3.99967C11.0203 3.99967 11.3594 3.8592 11.6095 3.60915C11.8595 3.3591 12 3.01996 12 2.66634C12 2.31272 11.8595 1.97358 11.6095 1.72353C11.3594 1.47348 11.0203 1.33301 10.6666 1.33301H5.25998M1.33331 1.33301L14.6666 14.6663M5.99998 5.99967V7.17301C5.99985 7.42106 5.93052 7.66416 5.79979 7.87498C5.66907 8.08579 5.48212 8.25596 5.25998 8.36634L4.07331 8.96634C3.85117 9.07673 3.66423 9.24689 3.5335 9.4577C3.40277 9.66852 3.33344 9.91162 3.33331 10.1597V10.6663C3.33331 10.8432 3.40355 11.0127 3.52858 11.1377C3.6536 11.2628 3.82317 11.333 3.99998 11.333H11.3333" stroke="#5D3FD3" stroke-width="1.5" stroke-linecap="round" stroke-linejoin="round"/>
</g>
<defs>
<clipPath id="clip0_1910_4187">
<rect width="16" height="16" fill="white"/>
</clipPath>
</defs>
</svg>
